<svg xmlns="http://www.w3.org/2000/svg" width="127" height="97" viewBox="0 0 127 97" fill="none"><path d="M82.2341 95.9898H82.2338L36.3828 96C12.2545 96.0066 -4.7955 72.2622 2.84521 49.2611L2.84522 49.261L14.8352 13.1597L14.8375 13.1527L14.8398 13.1456C16.2106 8.80378 18.2372 5.84621 20.6665 3.96912C23.0909 2.09574 25.9958 1.23697 29.2392 1.22888C73.7858 1.11444 98.2264 1.05722 111.53 1.02861C118.182 1.01431 122.05 1.00716 124.255 1.00358C124.788 1.00272 125.223 1.00206 125.578 1.00156L95.2914 85.3098C94.1637 88.1716 91.9002 90.8624 89.3596 92.8431C86.7875 94.8482 84.1093 95.9898 82.2341 95.9898Z" stroke="#3DB885" stroke-width="2"></path></svg>